<?xml version="1.0" encoding="UTF-8" standalone="no"?>
<!-- Created with Inkscape (http://www.inkscape.org/) -->

<svg
   xmlns:dc="http://purl.org/dc/elements/1.1/"
   xmlns:cc="http://creativecommons.org/ns#"
   xmlns:rdf="http://www.w3.org/1999/02/22-rdf-syntax-ns#"
   xmlns:svg="http://www.w3.org/2000/svg"
   xmlns="http://www.w3.org/2000/svg"
   xmlns:xlink="http://www.w3.org/1999/xlink"
   xmlns:sodipodi="http://sodipodi.sourceforge.net/DTD/sodipodi-0.dtd"
   xmlns:inkscape="http://www.inkscape.org/namespaces/inkscape"
   width="580"
   height="120"
   viewBox="0 0 153.45833 31.75"
   version="1.1"
   id="svg8"
   inkscape:version="0.92.4 (5da689c313, 2019-01-14)"
   sodipodi:docname="letreiro.svg"
   inkscape:export-filename="C:\Users\Users\Documents\WEDERSON\eleicao_2020\multimedia\completo.png"
   inkscape:export-xdpi="96"
   inkscape:export-ydpi="96">
  <defs
     id="defs2">
    <path
       style="fill:none;stroke:#000000;stroke-width:0.26458332px;stroke-linecap:butt;stroke-linejoin:miter;stroke-opacity:0"
       d="m 31.617986,269.00088 c 40.022177,2.4474 80.770984,3.24018 101.743164,0.32976"
       id="path893"
       inkscape:connector-curvature="0"
       sodipodi:nodetypes="cc" />
  </defs>
  <sodipodi:namedview
     id="base"
     pagecolor="#ffffff"
     bordercolor="#666666"
     borderopacity="1.0"
     inkscape:pageopacity="0.0"
     inkscape:pageshadow="2"
     inkscape:zoom="0.70710678"
     inkscape:cx="421.46289"
     inkscape:cy="172.58316"
     inkscape:document-units="mm"
     inkscape:current-layer="layer1"
     showgrid="false"
     units="px"
     inkscape:pagecheckerboard="true"
     inkscape:window-width="1366"
     inkscape:window-height="705"
     inkscape:window-x="-8"
     inkscape:window-y="-8"
     inkscape:window-maximized="1" />
  <metadata
     id="metadata5">
    <rdf:RDF>
      <cc:Work
         rdf:about="">
        <dc:format>image/svg+xml</dc:format>
        <dc:type
           rdf:resource="http://purl.org/dc/dcmitype/StillImage" />
        <dc:title></dc:title>
      </cc:Work>
    </rdf:RDF>
  </metadata>
  <g
     inkscape:label="Camada 1"
     inkscape:groupmode="layer"
     id="layer1"
     transform="translate(0,-265.24998)">
    <g
       style="font-style:normal;font-weight:400;font-size:34.375px;font-family:'MS Shell Dlg 2';fill:none;fill-rule:evenodd;stroke:#000000;stroke-width:1;stroke-linecap:square;stroke-linejoin:bevel;stroke-opacity:1"
       font-style="normal"
       font-size="34.375"
       font-weight="400"
       id="g900"
       transform="matrix(0.08466653,0,0,0.08466653,-197.11117,212.95124)" />
    <g
       style="font-style:normal;font-weight:400;font-size:34.375px;font-family:'MS Shell Dlg 2';fill:none;fill-rule:evenodd;stroke:#000000;stroke-width:1;stroke-linecap:square;stroke-linejoin:bevel;stroke-opacity:1"
       font-style="normal"
       font-size="34.375"
       font-weight="400"
       id="g902"
       transform="matrix(0.08466653,0,0,0.08466653,-197.11117,212.95124)" />
    <g
       style="font-style:normal;font-weight:400;font-size:34.375px;font-family:'MS Shell Dlg 2';fill:none;fill-rule:evenodd;stroke:#000000;stroke-width:1;stroke-linecap:square;stroke-linejoin:bevel;stroke-opacity:1"
       transform="matrix(0.99975085,0,0,0.99975085,-197.11117,212.95124)"
       font-style="normal"
       font-size="34.375"
       font-weight="400"
       id="g904" />
    <g
       style="font-style:normal;font-weight:400;font-size:34.375px;font-family:'MS Shell Dlg 2';fill:none;fill-rule:evenodd;stroke:#000000;stroke-width:1;stroke-linecap:square;stroke-linejoin:bevel;stroke-opacity:1"
       transform="matrix(0.08464545,0,0,0.08464545,-197.11117,212.95124)"
       font-style="normal"
       font-size="34.375"
       font-weight="400"
       id="g906" />
    <g
       style="font-style:normal;font-weight:400;font-size:34.375px;font-family:'MS Shell Dlg 2';fill:none;fill-rule:evenodd;stroke:#000000;stroke-width:1;stroke-linecap:square;stroke-linejoin:bevel;stroke-opacity:1"
       transform="matrix(0.08464545,0,0,0.08464545,-197.11117,212.95124)"
       font-style="normal"
       font-size="34.375"
       font-weight="400"
       id="g912" />
    <g
       style="font-style:normal;font-weight:400;font-size:34.375px;font-family:'MS Shell Dlg 2';fill:none;fill-rule:evenodd;stroke:#000000;stroke-width:1;stroke-linecap:square;stroke-linejoin:bevel;stroke-opacity:1"
       transform="matrix(0.99975085,0,0,0.99975085,-197.11117,212.95124)"
       font-style="normal"
       font-size="34.375"
       font-weight="400"
       id="g914" />
    <g
       style="font-style:normal;font-weight:400;font-size:34.375px;font-family:'MS Shell Dlg 2';fill:none;fill-rule:evenodd;stroke:#000000;stroke-width:1;stroke-linecap:square;stroke-linejoin:bevel;stroke-opacity:1"
       transform="matrix(0.99975085,0,0,0.99975085,-197.11117,212.95124)"
       font-style="normal"
       font-size="34.375"
       font-weight="400"
       id="g916" />
    <g
       style="font-style:normal;font-weight:400;font-size:34.375px;font-family:'MS Shell Dlg 2';fill:none;fill-rule:evenodd;stroke:#000000;stroke-width:1;stroke-linecap:square;stroke-linejoin:bevel;stroke-opacity:1"
       transform="matrix(0.99975085,0,0,0.99975085,-197.11117,212.95124)"
       font-style="normal"
       font-size="34.375"
       font-weight="400"
       id="g918" />
    <g
       style="font-style:normal;font-weight:400;font-size:34.375px;font-family:'MS Shell Dlg 2';fill:none;fill-rule:evenodd;stroke:#000000;stroke-width:1;stroke-linecap:square;stroke-linejoin:bevel;stroke-opacity:1"
       transform="matrix(0.99975085,0,0,0.99975085,-197.11117,212.95124)"
       font-style="normal"
       font-size="34.375"
       font-weight="400"
       id="g920" />
    <g
       style="font-style:normal;font-weight:400;font-size:34.375px;font-family:'MS Shell Dlg 2';fill:none;fill-rule:evenodd;stroke:#000000;stroke-width:1;stroke-linecap:square;stroke-linejoin:bevel;stroke-opacity:1"
       transform="matrix(0.99975085,0,0,0.99975085,-192.1302,216.82533)"
       font-style="normal"
       font-size="34.375"
       font-weight="400"
       id="g922" />
    <g
       style="font-style:normal;font-weight:400;font-size:34.375px;font-family:'MS Shell Dlg 2';fill:none;fill-rule:evenodd;stroke:#000000;stroke-width:1;stroke-linecap:square;stroke-linejoin:bevel;stroke-opacity:1"
       transform="matrix(0.99975085,0,0,0.99975085,-192.1302,216.82533)"
       font-style="normal"
       font-size="34.375"
       font-weight="400"
       id="g928" />
    <g
       style="font-style:normal;font-weight:400;font-size:34.375px;font-family:'MS Shell Dlg 2';fill:none;fill-rule:evenodd;stroke:#000000;stroke-width:1;stroke-linecap:square;stroke-linejoin:bevel;stroke-opacity:1"
       transform="matrix(0.99975085,0,0,0.99975085,-192.1302,216.82533)"
       font-style="normal"
       font-size="34.375"
       font-weight="400"
       id="g930" />
    <g
       style="font-style:normal;font-weight:400;font-size:34.375px;font-family:'MS Shell Dlg 2';fill:#000000;fill-opacity:0;fill-rule:evenodd;stroke:none;stroke-width:1;stroke-linecap:square;stroke-linejoin:bevel"
       transform="matrix(0.08464545,0,0,0.08464545,-192.1302,216.82533)"
       font-style="normal"
       font-size="34.375"
       font-weight="400"
       id="g934">
      <rect
         height="2435"
         y="0"
         x="0"
         width="3449"
         id="rect932" />
    </g>
    <g
       style="font-style:normal;font-weight:400;font-size:34.375px;font-family:'MS Shell Dlg 2';fill:none;fill-rule:evenodd;stroke:#000000;stroke-width:1;stroke-linecap:square;stroke-linejoin:bevel;stroke-opacity:1"
       transform="matrix(0.99975085,0,0,0.99975085,-192.1302,216.82533)"
       font-style="normal"
       font-size="34.375"
       font-weight="400"
       id="g942" />
    <g
       style="font-style:normal;font-weight:400;font-size:34.375px;font-family:'MS Shell Dlg 2';fill:none;fill-rule:evenodd;stroke:#000000;stroke-width:1;stroke-linecap:square;stroke-linejoin:bevel;stroke-opacity:1"
       transform="matrix(0.99975085,0,0,0.99975085,-192.1302,216.82533)"
       font-style="normal"
       font-size="34.375"
       font-weight="400"
       id="g944" />
    <g
       style="font-style:normal;font-weight:400;font-size:34.375px;font-family:'MS Shell Dlg 2';fill:none;fill-rule:evenodd;stroke:#000000;stroke-width:1;stroke-linecap:square;stroke-linejoin:bevel;stroke-opacity:1"
       transform="matrix(0.99975085,0,0,0.99975085,-192.1302,216.82533)"
       font-style="normal"
       font-size="34.375"
       font-weight="400"
       id="g946" />
    <g
       style="font-style:normal;font-weight:400;font-size:34.375px;font-family:'MS Shell Dlg 2';fill:none;fill-rule:evenodd;stroke:#000000;stroke-width:1;stroke-linecap:square;stroke-linejoin:bevel;stroke-opacity:1"
       font-style="normal"
       font-size="34.375"
       font-weight="400"
       id="g948"
       transform="matrix(0.08466653,0,0,0.08466653,-197.11117,212.95124)" />
    <g
       style="font-style:normal;font-weight:400;font-size:34.375px;font-family:'MS Shell Dlg 2';fill:none;fill-rule:evenodd;stroke:#000000;stroke-width:1;stroke-linecap:square;stroke-linejoin:bevel;stroke-opacity:1"
       transform="matrix(0.99975085,0,0,0.99975085,-192.1302,216.82533)"
       font-style="normal"
       font-size="34.375"
       font-weight="400"
       id="g950" />
    <g
       style="font-style:normal;font-weight:400;font-size:34.375px;font-family:'MS Shell Dlg 2';fill:none;fill-rule:evenodd;stroke:#000000;stroke-width:1;stroke-linecap:square;stroke-linejoin:bevel;stroke-opacity:1"
       transform="matrix(0.99975085,0,0,0.99975085,-192.1302,216.82533)"
       font-style="normal"
       font-size="34.375"
       font-weight="400"
       id="g952" />
    <g
       style="font-style:normal;font-weight:400;font-size:34.375px;font-family:'MS Shell Dlg 2';fill:none;fill-rule:evenodd;stroke:#000000;stroke-width:1;stroke-linecap:square;stroke-linejoin:bevel;stroke-opacity:1"
       transform="matrix(0.99975085,0,0,0.99975085,-192.1302,216.82533)"
       font-style="normal"
       font-size="34.375"
       font-weight="400"
       id="g954" />
    <g
       style="font-style:normal;font-weight:400;font-size:34.375px;font-family:'MS Shell Dlg 2';fill:none;fill-rule:evenodd;stroke:#000000;stroke-width:1;stroke-linecap:square;stroke-linejoin:bevel;stroke-opacity:1"
       transform="matrix(0.99975085,0,0,0.99975085,-192.1302,216.82533)"
       font-style="normal"
       font-size="34.375"
       font-weight="400"
       id="g956" />
    <g
       style="font-style:normal;font-weight:400;font-size:34.375px;font-family:'MS Shell Dlg 2';fill:none;fill-rule:evenodd;stroke:#000000;stroke-width:1;stroke-linecap:square;stroke-linejoin:bevel;stroke-opacity:1"
       font-style="normal"
       font-size="34.375"
       font-weight="400"
       id="g958"
       transform="matrix(0.08466653,0,0,0.08466653,-197.11117,212.95124)" />
    <flowRoot
       xml:space="preserve"
       id="flowRoot1051"
       style="font-style:normal;font-variant:normal;font-weight:normal;font-stretch:normal;font-size:37.33333206px;line-height:1.25;font-family:Arial;-inkscape-font-specification:Arial;letter-spacing:0px;word-spacing:0px;fill:#000000;fill-opacity:1;stroke:none"><flowRegion
         id="flowRegion1053"><rect
           id="rect1055"
           width="266.05713"
           height="50.294323"
           x="854"
           y="260.00006" /></flowRegion><flowPara
         id="flowPara1057" /></flowRoot>    <text
       transform="translate(-268.02292,-52.387515)"
       xml:space="preserve"
       style="font-style:normal;font-variant:normal;font-weight:normal;font-stretch:normal;font-size:7.68625307px;line-height:1.25;font-family:Arial;-inkscape-font-specification:Arial;letter-spacing:0px;word-spacing:0px;fill:#000000;fill-opacity:1;stroke:none;stroke-width:0.20588179"
       id="text850-4"><textPath
         xlink:href="#path893"
         id="textPath895"><tspan
   style="font-style:normal;font-variant:normal;font-weight:bold;font-stretch:normal;font-family:Klavika;-inkscape-font-specification:'Klavika Bold';fill:#ffffff;stroke-width:0.20588179"
   id="tspan848-8">PRÉ-CANDIDATO A VEREADOR</tspan></textPath></text>
    <g
       id="g908"
       transform="translate(-0.49046594,-0.29134618)">
      <g
         aria-label="WEDERSON DE PAULA"
         transform="scale(0.94512634,1.0580596)"
         style="font-style:normal;font-variant:normal;font-weight:normal;font-stretch:normal;font-size:15.89721107px;line-height:1.25;font-family:Arial;-inkscape-font-specification:Arial;letter-spacing:0px;word-spacing:0px;fill:#000000;fill-opacity:1;stroke:none;stroke-width:0.42581815"
         id="text850">
        <path
           d="m 20.55261,255.56028 h -2.352787 l -1.780487,7.56708 -1.812283,-7.56708 h -2.909189 l -1.8440766,7.56708 -1.7963849,-7.56708 H 5.7046153 l 2.6071426,10.58755 h 3.0363671 l 1.796385,-8.04399 1.780488,8.04399 h 3.036367 z"
           style="font-style:normal;font-variant:normal;font-weight:bold;font-stretch:normal;font-family:Klavika;-inkscape-font-specification:'Klavika Bold';fill:#ffffff;stroke-width:0.42581815"
           id="path910" />
        <path
           d="m 28.316163,266.14783 v -2.11433 h -4.27635 v -2.3051 h 3.942508 v -2.11433 h -3.942508 v -1.93946 h 4.27635 v -2.11433 h -6.660932 v 10.58755 z"
           style="font-style:normal;font-variant:normal;font-weight:bold;font-stretch:normal;font-family:Klavika;-inkscape-font-specification:'Klavika Bold';fill:#ffffff;stroke-width:0.42581815"
           id="path912" />
        <path
           d="m 37.810026,263.39761 v -5.08711 c 0,-1.43075 -0.96973,-2.75022 -3.576873,-2.75022 h -4.10148 v 10.58755 h 4.10148 c 2.607143,0 3.576873,-1.33537 3.576873,-2.75022 z m -2.384582,-0.65179 c 0,0.82666 -0.28615,1.28768 -1.478441,1.28768 h -1.430749 v -6.35889 h 1.430749 c 1.192291,0 1.478441,0.46102 1.478441,1.28768 z"
           style="font-style:normal;font-variant:normal;font-weight:bold;font-stretch:normal;font-family:Klavika;-inkscape-font-specification:'Klavika Bold';fill:#ffffff;stroke-width:0.42581815"
           id="path914" />
        <path
           d="m 46.293672,266.14783 v -2.11433 h -4.27635 v -2.3051 h 3.942509 v -2.11433 h -3.942509 v -1.93946 h 4.27635 v -2.11433 h -6.660931 v 10.58755 z"
           style="font-style:normal;font-variant:normal;font-weight:bold;font-stretch:normal;font-family:Klavika;-inkscape-font-specification:'Klavika Bold';fill:#ffffff;stroke-width:0.42581815"
           id="path916" />
        <path
           d="m 54.229611,266.14783 h 2.829704 l -2.559451,-3.62457 c 1.065113,-0.44512 1.542029,-1.33536 1.542029,-2.65483 v -1.30357 c 0,-1.98715 -0.953832,-3.00458 -3.529181,-3.00458 h -4.403527 v 10.58755 h 2.384582 v -3.29073 h 1.398954 z m -0.572299,-6.51786 c 0,0.79486 -0.254356,1.1605 -1.271777,1.1605 h -1.891768 v -3.11586 h 1.891768 c 0.96973,0 1.271777,0.31795 1.271777,1.11281 z"
           style="font-style:normal;font-variant:normal;font-weight:bold;font-stretch:normal;font-family:Klavika;-inkscape-font-specification:'Klavika Bold';fill:#ffffff;stroke-width:0.42581815"
           id="path918" />
        <path
           d="m 65.303259,263.17505 c 0,-2.08254 -0.143075,-2.63894 -3.004573,-3.32252 -1.669207,-0.39743 -1.716899,-0.41333 -1.716899,-1.43075 0,-0.77896 0.238459,-0.96973 1.303572,-0.96973 0.953832,0 1.732796,0.0954 2.940984,0.30205 l 0.238458,-2.00305 c -1.176394,-0.25435 -2.289198,-0.34974 -3.211237,-0.34974 -2.909189,0 -3.656358,0.84255 -3.656358,2.95688 0,2.2892 0.381533,2.79791 2.940984,3.35432 1.732796,0.38153 1.780487,0.49281 1.780487,1.44664 0,0.89025 -0.238458,1.1287 -1.462543,1.1287 -1.096908,0 -2.082535,-0.20666 -3.052264,-0.50871 l -0.397431,1.84408 c 0.906141,0.41333 2.193815,0.68358 3.417901,0.68358 3.195339,0 3.878919,-1.03332 3.878919,-3.13175 z"
           style="font-style:normal;font-variant:normal;font-weight:bold;font-stretch:normal;font-family:Klavika;-inkscape-font-specification:'Klavika Bold';fill:#ffffff;stroke-width:0.42581815"
           id="path920" />
        <path
           d="m 74.951625,258.64434 c 0,-1.60561 -1.112805,-3.24303 -4.10148,-3.24303 -2.988676,0 -4.101481,1.63742 -4.101481,3.24303 v 4.41943 c 0,1.60562 1.112805,3.24303 4.101481,3.24303 2.988675,0 4.10148,-1.63741 4.10148,-3.24303 z m -2.384582,4.21276 c 0,0.82666 -0.524608,1.33537 -1.716898,1.33537 -1.192291,0 -1.716899,-0.50871 -1.716899,-1.33537 v -4.00609 c 0,-0.82666 0.524608,-1.33537 1.716899,-1.33537 1.19229,0 1.716898,0.50871 1.716898,1.33537 z"
           style="font-style:normal;font-variant:normal;font-weight:bold;font-stretch:normal;font-family:Klavika;-inkscape-font-specification:'Klavika Bold';fill:#ffffff;stroke-width:0.42581815"
           id="path922" />
        <path
           d="m 82.506525,266.14783 h 2.940984 v -10.58755 h -2.273301 v 7.29682 l -3.481489,-7.29682 h -2.925087 v 10.58755 h 2.273301 v -6.96298 z"
           style="font-style:normal;font-variant:normal;font-weight:bold;font-stretch:normal;font-family:Klavika;-inkscape-font-specification:'Klavika Bold';fill:#ffffff;stroke-width:0.42581815"
           id="path924" />
        <path
           d="m 98.542337,263.39761 v -5.08711 c 0,-1.43075 -0.96973,-2.75022 -3.576873,-2.75022 h -4.10148 v 10.58755 h 4.10148 c 2.607143,0 3.576873,-1.33537 3.576873,-2.75022 z m -2.384582,-0.65179 c 0,0.82666 -0.28615,1.28768 -1.478441,1.28768 h -1.430749 v -6.35889 h 1.430749 c 1.192291,0 1.478441,0.46102 1.478441,1.28768 z"
           style="font-style:normal;font-variant:normal;font-weight:bold;font-stretch:normal;font-family:Klavika;-inkscape-font-specification:'Klavika Bold';fill:#ffffff;stroke-width:0.42581815"
           id="path926" />
        <path
           d="m 107.02598,266.14783 v -2.11433 h -4.27635 v -2.3051 h 3.94251 v -2.11433 h -3.94251 v -1.93946 h 4.27635 v -2.11433 h -6.66093 v 10.58755 z"
           style="font-style:normal;font-variant:normal;font-weight:bold;font-stretch:normal;font-family:Klavika;-inkscape-font-specification:'Klavika Bold';fill:#ffffff;stroke-width:0.42581815"
           id="path928" />
        <path
           d="m 120.04804,259.94791 v -1.38305 c 0,-1.98715 -0.95383,-3.00458 -3.52918,-3.00458 h -4.32404 v 10.58755 h 2.38458 v -3.21124 h 1.81228 c 2.57535,0 3.65636,-1.00152 3.65636,-2.98868 z m -2.38458,-0.23845 c 0,0.76306 -0.22256,1.16049 -1.27178,1.16049 h -1.81228 v -3.19534 h 1.81228 c 1.00153,0 1.27178,0.34974 1.27178,1.11281 z"
           style="font-style:normal;font-variant:normal;font-weight:bold;font-stretch:normal;font-family:Klavika;-inkscape-font-specification:'Klavika Bold';fill:#ffffff;stroke-width:0.42581815"
           id="path930" />
        <path
           d="m 126.29663,255.56028 h -3.17944 l -3.22713,10.58755 h 2.47996 l 0.5723,-2.06664 h 3.54508 l 0.5723,2.06664 h 2.47997 z m -1.58972,2.09844 1.20819,4.43532 h -2.43227 z"
           style="font-style:normal;font-variant:normal;font-weight:bold;font-stretch:normal;font-family:Klavika;-inkscape-font-specification:'Klavika Bold';fill:#ffffff;stroke-width:0.42581815"
           id="path932" />
        <path
           d="m 136.0923,255.56028 v 7.28093 c 0,0.85845 -0.41333,1.35126 -1.60562,1.35126 -1.19229,0 -1.60562,-0.49281 -1.60562,-1.35126 v -7.28093 h -2.38458 v 7.50349 c 0,1.60562 1.00152,3.24303 3.9902,3.24303 2.98868,0 3.9902,-1.63741 3.9902,-3.24303 v -7.50349 z"
           style="font-style:normal;font-variant:normal;font-weight:bold;font-stretch:normal;font-family:Klavika;-inkscape-font-specification:'Klavika Bold';fill:#ffffff;stroke-width:0.42581815"
           id="path934" />
        <path
           d="m 147.03106,266.14783 v -2.11433 h -4.19686 v -8.47322 h -2.38458 v 10.58755 z"
           style="font-style:normal;font-variant:normal;font-weight:bold;font-stretch:normal;font-family:Klavika;-inkscape-font-specification:'Klavika Bold';fill:#ffffff;stroke-width:0.42581815"
           id="path936" />
        <path
           d="m 154.4583,255.56028 h -3.17944 l -3.22713,10.58755 h 2.47996 l 0.5723,-2.06664 h 3.54508 l 0.5723,2.06664 h 2.47996 z m -1.58972,2.09844 1.20819,4.43532 h -2.43228 z"
           style="font-style:normal;font-variant:normal;font-weight:bold;font-stretch:normal;font-family:Klavika;-inkscape-font-specification:'Klavika Bold';fill:#ffffff;stroke-width:0.42581815"
           id="path938" />
      </g>
      <g
         aria-label="PRÉ-CANDIDATO A VEREADOR"
         transform="scale(0.94512635,1.0580596)"
         style="font-style:normal;font-variant:normal;font-weight:normal;font-stretch:normal;font-size:15.89721107px;line-height:1.25;font-family:Arial;-inkscape-font-specification:Arial;letter-spacing:0px;word-spacing:0px;fill:#000000;fill-opacity:1;stroke:none;stroke-width:0.42581815"
         id="text850-3">
        <path
           d="m 23.27259,272.59554 v -0.85936 c 0,-1.23473 -0.592667,-1.8669 -2.192867,-1.8669 h -2.686756 v 6.5786 h 1.481667 v -1.99532 h 1.126067 c 1.6002,0 2.271889,-0.6223 2.271889,-1.85702 z m -1.481667,-0.14816 c 0,0.47413 -0.138289,0.72107 -0.790222,0.72107 h -1.126067 v -1.98543 h 1.126067 c 0.6223,0 0.790222,0.21731 0.790222,0.69144 z"
           style="font-style:normal;font-variant:normal;font-weight:bold;font-stretch:normal;font-size:9.87777805px;font-family:Klavika;-inkscape-font-specification:'Klavika Bold';fill:#ffffff;stroke-width:0.42581815"
           id="path941" />
        <path
           d="m 27.96438,276.44788 h 1.758244 l -1.590322,-2.25214 c 0.661811,-0.27658 0.958144,-0.82973 0.958144,-1.64959 v -0.80997 c 0,-1.23473 -0.592666,-1.8669 -2.192866,-1.8669 h -2.736145 v 6.5786 h 1.481667 v -2.0447 h 0.869244 z m -0.3556,-4.04989 c 0,0.49389 -0.158045,0.72107 -0.790223,0.72107 h -1.175455 v -1.93604 h 1.175455 c 0.602545,0 0.790223,0.19756 0.790223,0.69144 z"
           style="font-style:normal;font-variant:normal;font-weight:bold;font-stretch:normal;font-size:9.87777805px;font-family:Klavika;-inkscape-font-specification:'Klavika Bold';fill:#ffffff;stroke-width:0.42581815"
           id="path943" />
        <path
           d="m 34.647468,276.44788 v -1.31375 h -2.657122 v -1.43228 h 2.449689 v -1.31374 h -2.449689 v -1.20509 h 2.657122 v -1.31374 h -4.138789 v 6.5786 z m -2.262011,-6.98359 c 0.563034,-0.29634 0.908756,-0.49389 1.382889,-0.82974 l -0.5334,-0.82973 c -0.385233,0.29633 -0.859366,0.60254 -1.343378,0.90876 z"
           style="font-style:normal;font-variant:normal;font-weight:bold;font-stretch:normal;font-size:9.87777805px;font-family:Klavika;-inkscape-font-specification:'Klavika Bold';fill:#ffffff;stroke-width:0.42581815"
           id="path945" />
        <path
           d="m 38.077064,274.27476 v -1.18533 h -2.548467 v 1.18533 z"
           style="font-style:normal;font-variant:normal;font-weight:bold;font-stretch:normal;font-size:9.87777805px;font-family:Klavika;-inkscape-font-specification:'Klavika Bold';fill:#ffffff;stroke-width:0.42581815"
           id="path947" />
        <path
           d="m 40.543112,272.02263 c 0,-0.57291 0.187678,-0.90875 0.918633,-0.90875 0.474134,0 1.126067,0.0593 1.698978,0.15804 l 0.207434,-1.29399 c -0.651934,-0.13829 -1.244601,-0.20743 -1.906412,-0.20743 -1.659466,0 -2.4003,0.81985 -2.4003,2.01506 v 2.74603 c 0,1.19521 0.740834,2.01506 2.4003,2.01506 0.661811,0 1.254478,-0.0691 1.906412,-0.20743 l -0.207434,-1.29399 c -0.572911,0.0988 -1.224844,0.15805 -1.698978,0.15805 -0.730955,0 -0.918633,-0.33585 -0.918633,-0.90876 z"
           style="font-style:normal;font-variant:normal;font-weight:bold;font-stretch:normal;font-size:9.87777805px;font-family:Klavika;-inkscape-font-specification:'Klavika Bold';fill:#ffffff;stroke-width:0.42581815"
           id="path949" />
        <path
           d="m 47.894649,269.86928 h -1.975556 l -2.005189,6.5786 h 1.540934 l 0.3556,-1.28412 h 2.202744 l 0.3556,1.28412 h 1.540933 z m -0.987778,1.30386 0.750711,2.7559 h -1.5113 z"
           style="font-style:normal;font-variant:normal;font-weight:bold;font-stretch:normal;font-size:9.87777805px;font-family:Klavika;-inkscape-font-specification:'Klavika Bold';fill:#ffffff;stroke-width:0.42581815"
           id="path951" />
        <path
           d="m 54.215963,276.44788 h 1.827389 v -6.5786 H 54.63083 v 4.5339 l -2.163233,-4.5339 h -1.817511 v 6.5786 h 1.412522 v -4.32647 z"
           style="font-style:normal;font-variant:normal;font-weight:bold;font-stretch:normal;font-size:9.87777805px;font-family:Klavika;-inkscape-font-specification:'Klavika Bold';fill:#ffffff;stroke-width:0.42581815"
           id="path953" />
        <path
           d="m 62.096269,274.73902 v -3.16089 c 0,-0.889 -0.602544,-1.70885 -2.2225,-1.70885 h -2.548467 v 6.5786 h 2.548467 c 1.619956,0 2.2225,-0.82974 2.2225,-1.70886 z m -1.481667,-0.40499 c 0,0.51365 -0.1778,0.8001 -0.918633,0.8001 h -0.889 v -3.95111 h 0.889 c 0.740833,0 0.918633,0.28646 0.918633,0.8001 z"
           style="font-style:normal;font-variant:normal;font-weight:bold;font-stretch:normal;font-size:9.87777805px;font-family:Klavika;-inkscape-font-specification:'Klavika Bold';fill:#ffffff;stroke-width:0.42581815"
           id="path955" />
        <path
           d="m 64.759876,276.44788 v -6.5786 H 63.27821 v 6.5786 z"
           style="font-style:normal;font-variant:normal;font-weight:bold;font-stretch:normal;font-size:9.87777805px;font-family:Klavika;-inkscape-font-specification:'Klavika Bold';fill:#ffffff;stroke-width:0.42581815"
           id="path957" />
        <path
           d="m 70.855081,274.73902 v -3.16089 c 0,-0.889 -0.602545,-1.70885 -2.2225,-1.70885 h -2.548467 v 6.5786 h 2.548467 c 1.619955,0 2.2225,-0.82974 2.2225,-1.70886 z m -1.481667,-0.40499 c 0,0.51365 -0.1778,0.8001 -0.918633,0.8001 h -0.889 v -3.95111 h 0.889 c 0.740833,0 0.918633,0.28646 0.918633,0.8001 z"
           style="font-style:normal;font-variant:normal;font-weight:bold;font-stretch:normal;font-size:9.87777805px;font-family:Klavika;-inkscape-font-specification:'Klavika Bold';fill:#ffffff;stroke-width:0.42581815"
           id="path959" />
        <path
           d="m 75.328634,269.86928 h -1.975556 l -2.005189,6.5786 h 1.540933 l 0.3556,-1.28412 h 2.202745 l 0.3556,1.28412 H 77.3437 Z m -0.987778,1.30386 0.750711,2.7559 h -1.5113 z"
           style="font-style:normal;font-variant:normal;font-weight:bold;font-stretch:normal;font-size:9.87777805px;font-family:Klavika;-inkscape-font-specification:'Klavika Bold';fill:#ffffff;stroke-width:0.42581815"
           id="path961" />
        <path
           d="m 82.076855,271.18302 v -1.31374 h -5.017911 v 1.31374 h 1.768122 v 5.26486 h 1.481667 v -5.26486 z"
           style="font-style:normal;font-variant:normal;font-weight:bold;font-stretch:normal;font-size:9.87777805px;font-family:Klavika;-inkscape-font-specification:'Klavika Bold';fill:#ffffff;stroke-width:0.42581815"
           id="path963" />
        <path
           d="m 87.682341,271.78556 c 0,-0.99765 -0.691445,-2.01506 -2.548467,-2.01506 -1.857022,0 -2.548467,1.01741 -2.548467,2.01506 v 2.74603 c 0,0.99765 0.691445,2.01506 2.548467,2.01506 1.857022,0 2.548467,-1.01741 2.548467,-2.01506 z m -1.481667,2.61762 c 0,0.51364 -0.325967,0.82973 -1.0668,0.82973 -0.740833,0 -1.0668,-0.31609 -1.0668,-0.82973 v -2.4892 c 0,-0.51365 0.325967,-0.82974 1.0668,-0.82974 0.740833,0 1.0668,0.31609 1.0668,0.82974 z"
           style="font-style:normal;font-variant:normal;font-weight:bold;font-stretch:normal;font-size:9.87777805px;font-family:Klavika;-inkscape-font-specification:'Klavika Bold';fill:#ffffff;stroke-width:0.42581815"
           id="path965" />
        <path
           d="m 94.331784,269.86928 h -1.975555 l -2.005189,6.5786 h 1.540933 l 0.3556,-1.28412 h 2.202745 l 0.3556,1.28412 h 1.540933 z m -0.987777,1.30386 0.750711,2.7559 h -1.5113 z"
           style="font-style:normal;font-variant:normal;font-weight:bold;font-stretch:normal;font-size:9.87777805px;font-family:Klavika;-inkscape-font-specification:'Klavika Bold';fill:#ffffff;stroke-width:0.42581815"
           id="path967" />
        <path
           d="m 104.35665,269.86928 h -1.52118 l -1.39277,5.23522 -1.39276,-5.23522 h -1.521181 l 1.857021,6.5786 h 2.11385 z"
           style="font-style:normal;font-variant:normal;font-weight:bold;font-stretch:normal;font-size:9.87777805px;font-family:Klavika;-inkscape-font-specification:'Klavika Bold';fill:#ffffff;stroke-width:0.42581815"
           id="path969" />
        <path
           d="m 109.13594,276.44788 v -1.31375 h -2.65712 v -1.43228 h 2.44969 v -1.31374 h -2.44969 v -1.20509 h 2.65712 v -1.31374 h -4.13879 v 6.5786 z"
           style="font-style:normal;font-variant:normal;font-weight:bold;font-stretch:normal;font-size:9.87777805px;font-family:Klavika;-inkscape-font-specification:'Klavika Bold';fill:#ffffff;stroke-width:0.42581815"
           id="path971" />
        <path
           d="m 114.06697,276.44788 h 1.75824 l -1.59032,-2.25214 c 0.66181,-0.27658 0.95814,-0.82973 0.95814,-1.64959 v -0.80997 c 0,-1.23473 -0.59266,-1.8669 -2.19286,-1.8669 h -2.73615 v 6.5786 h 1.48167 v -2.0447 h 0.86924 z m -0.3556,-4.04989 c 0,0.49389 -0.15805,0.72107 -0.79022,0.72107 h -1.17546 v -1.93604 h 1.17546 c 0.60254,0 0.79022,0.19756 0.79022,0.69144 z"
           style="font-style:normal;font-variant:normal;font-weight:bold;font-stretch:normal;font-size:9.87777805px;font-family:Klavika;-inkscape-font-specification:'Klavika Bold';fill:#ffffff;stroke-width:0.42581815"
           id="path973" />
        <path
           d="m 120.75006,276.44788 v -1.31375 h -2.65713 v -1.43228 h 2.44969 v -1.31374 h -2.44969 v -1.20509 h 2.65713 v -1.31374 h -4.13879 v 6.5786 z"
           style="font-style:normal;font-variant:normal;font-weight:bold;font-stretch:normal;font-size:9.87777805px;font-family:Klavika;-inkscape-font-specification:'Klavika Bold';fill:#ffffff;stroke-width:0.42581815"
           id="path975" />
        <path
           d="m 125.46993,269.86928 h -1.97556 l -2.00518,6.5786 h 1.54093 l 0.3556,-1.28412 h 2.20274 l 0.3556,1.28412 h 1.54094 z m -0.98778,1.30386 0.75071,2.7559 h -1.5113 z"
           style="font-style:normal;font-variant:normal;font-weight:bold;font-stretch:normal;font-size:9.87777805px;font-family:Klavika;-inkscape-font-specification:'Klavika Bold';fill:#ffffff;stroke-width:0.42581815"
           id="path977" />
        <path
           d="m 132.99634,274.73902 v -3.16089 c 0,-0.889 -0.60255,-1.70885 -2.2225,-1.70885 h -2.54847 v 6.5786 h 2.54847 c 1.61995,0 2.2225,-0.82974 2.2225,-1.70886 z m -1.48167,-0.40499 c 0,0.51365 -0.1778,0.8001 -0.91863,0.8001 h -0.889 v -3.95111 h 0.889 c 0.74083,0 0.91863,0.28646 0.91863,0.8001 z"
           style="font-style:normal;font-variant:normal;font-weight:bold;font-stretch:normal;font-size:9.87777805px;font-family:Klavika;-inkscape-font-specification:'Klavika Bold';fill:#ffffff;stroke-width:0.42581815"
           id="path979" />
        <path
           d="m 139.07765,271.78556 c 0,-0.99765 -0.69144,-2.01506 -2.54847,-2.01506 -1.85702,0 -2.54846,1.01741 -2.54846,2.01506 v 2.74603 c 0,0.99765 0.69144,2.01506 2.54846,2.01506 1.85703,0 2.54847,-1.01741 2.54847,-2.01506 z m -1.48167,2.61762 c 0,0.51364 -0.32596,0.82973 -1.0668,0.82973 -0.74083,0 -1.0668,-0.31609 -1.0668,-0.82973 v -2.4892 c 0,-0.51365 0.32597,-0.82974 1.0668,-0.82974 0.74084,0 1.0668,0.31609 1.0668,0.82974 z"
           style="font-style:normal;font-variant:normal;font-weight:bold;font-stretch:normal;font-size:9.87777805px;font-family:Klavika;-inkscape-font-specification:'Klavika Bold';fill:#ffffff;stroke-width:0.42581815"
           id="path981" />
        <path
           d="m 144.00898,276.44788 h 1.75824 l -1.59032,-2.25214 c 0.66181,-0.27658 0.95814,-0.82973 0.95814,-1.64959 v -0.80997 c 0,-1.23473 -0.59266,-1.8669 -2.19286,-1.8669 h -2.73615 v 6.5786 h 1.48167 v -2.0447 h 0.86924 z m -0.3556,-4.04989 c 0,0.49389 -0.15805,0.72107 -0.79023,0.72107 h -1.17545 v -1.93604 h 1.17545 c 0.60255,0 0.79023,0.19756 0.79023,0.69144 z"
           style="font-style:normal;font-variant:normal;font-weight:bold;font-stretch:normal;font-size:9.87777805px;font-family:Klavika;-inkscape-font-specification:'Klavika Bold';fill:#ffffff;stroke-width:0.42581815"
           id="path983" />
      </g>
    </g>
  </g>
</svg>
