<?xml version="1.0" encoding="UTF-8" standalone="no"?>
<!-- Generator: Adobe Illustrator 16.0.0, SVG Export Plug-In . SVG Version: 6.00 Build 0)  -->

<svg
   xmlns:dc="http://purl.org/dc/elements/1.1/"
   xmlns:cc="http://creativecommons.org/ns#"
   xmlns:rdf="http://www.w3.org/1999/02/22-rdf-syntax-ns#"
   xmlns:svg="http://www.w3.org/2000/svg"
   xmlns="http://www.w3.org/2000/svg"
   xmlns:sodipodi="http://sodipodi.sourceforge.net/DTD/sodipodi-0.dtd"
   xmlns:inkscape="http://www.inkscape.org/namespaces/inkscape"
   version="1.1"
   id="Capa_1"
   x="0px"
   y="0px"
   width="477.959px"
   height="477.959px"
   viewBox="0 0 477.959 477.959"
   style="enable-background:new 0 0 477.959 477.959;"
   xml:space="preserve"
   sodipodi:docname="trevo.svg"
   inkscape:version="0.92.4 (5da689c313, 2019-01-14)"><metadata
   id="metadata51"><rdf:RDF><cc:Work
       rdf:about=""><dc:format>image/svg+xml</dc:format><dc:type
         rdf:resource="http://purl.org/dc/dcmitype/StillImage" /><dc:title></dc:title></cc:Work></rdf:RDF></metadata><defs
   id="defs49" /><sodipodi:namedview
   pagecolor="#ffffff"
   bordercolor="#666666"
   borderopacity="1"
   objecttolerance="10"
   gridtolerance="10"
   guidetolerance="10"
   inkscape:pageopacity="0"
   inkscape:pageshadow="2"
   inkscape:window-width="1366"
   inkscape:window-height="705"
   id="namedview47"
   showgrid="false"
   inkscape:pagecheckerboard="true"
   inkscape:zoom="0.49376619"
   inkscape:cx="238.97951"
   inkscape:cy="238.97951"
   inkscape:window-x="-8"
   inkscape:window-y="-8"
   inkscape:window-maximized="1"
   inkscape:current-layer="Capa_1" />
<g
   id="g14"
   transform="matrix(-1,0,0,1,477.959,0)"
   style="fill:#008000">
	<g
   id="g12"
   style="fill:#008000">
		<path
   d="m 238.421,165.792 c 0,0 54.115,-84.598 18.411,-143.04 C 243.147,0.356 213.901,-6.707 191.505,6.976 c -16.049,9.805 -24.223,27.601 -22.533,45.14 -14.836,-9.507 -34.4,-10.355 -50.449,-0.552 -22.396,13.683 -29.459,42.93 -15.777,65.327 35.706,58.442 135.675,48.901 135.675,48.901 z"
   id="path2"
   inkscape:connector-curvature="0"
   style="fill:#008000" />
		<path
   d="m 260.801,202.423 c 0,0 -54.115,84.596 -18.41,143.04 13.684,22.396 42.932,29.46 65.328,15.775 16.047,-9.804 24.223,-27.6 22.53,-45.14 14.837,9.509 34.402,10.357 50.449,0.553 22.396,-13.683 29.459,-42.931 15.777,-65.325 -35.704,-58.445 -135.674,-48.903 -135.674,-48.903 z"
   id="path4"
   inkscape:connector-curvature="0"
   style="fill:#008000" />
		<path
   d="m 426.744,126.001 c -9.805,-16.049 -27.602,-24.223 -45.141,-22.533 9.508,-14.836 10.357,-34.4 0.553,-50.448 -13.684,-22.396 -42.93,-29.46 -65.326,-15.778 -58.44,35.706 -48.903,135.676 -48.903,135.676 0,0 84.598,54.115 143.041,18.41 22.393,-13.683 29.458,-42.931 15.776,-65.327 z"
   id="path6"
   inkscape:connector-curvature="0"
   style="fill:#008000" />
		<path
   d="m 117.62,264.748 c -9.508,14.835 -10.357,34.4 -0.551,50.447 13.682,22.396 42.93,29.459 65.324,15.777 58.445,-35.705 48.904,-135.676 48.904,-135.676 0,0 -84.596,-54.115 -143.041,-18.408 -22.395,13.682 -29.459,42.93 -15.775,65.326 9.805,16.049 27.6,24.223 45.139,22.534 z"
   id="path8"
   inkscape:connector-curvature="0"
   style="fill:#008000" />
		<path
   d="m 216.699,316.855 c -0.652,1.458 -1.324,3.08 -2.141,4.81 -0.85,1.716 -1.701,3.586 -2.77,5.514 -2.033,3.893 -4.572,8.14 -7.598,12.561 -3.018,4.425 -6.537,9.018 -10.539,13.598 -4,4.585 -8.482,9.155 -13.365,13.593 -4.879,4.438 -10.156,8.74 -15.711,12.836 -5.566,4.083 -11.416,7.953 -17.402,11.58 -11.975,7.257 -24.551,13.476 -36.604,18.621 -12.051,5.156 -23.588,9.239 -33.539,12.366 -9.957,3.128 -18.332,5.291 -24.117,6.646 -2.891,0.676 -5.137,1.151 -6.613,1.443 -0.709,0.131 -1.254,0.232 -1.619,0.299 -0.191,0.037 -0.25,0.036 -0.303,0.041 -0.051,0.003 -0.15,0.024 -0.137,0.021 L 58.44,477.96 c 0,0 0.287,-0.111 0.842,-0.329 0.475,-0.201 1.182,-0.5 2.104,-0.888 1.773,-0.77 4.283,-1.895 7.404,-3.366 6.24,-2.947 14.922,-7.3 25.004,-13.005 10.078,-5.706 21.563,-12.766 33.34,-21.082 11.775,-8.303 23.848,-17.866 35.027,-28.396 5.592,-5.263 10.967,-10.746 15.982,-16.385 5.006,-5.648 9.652,-11.443 13.828,-17.263 4.18,-5.82 7.881,-11.665 11.053,-17.375 3.176,-5.705 5.814,-11.273 7.957,-16.503 2.145,-5.229 3.809,-10.114 5.027,-14.499 0.66,-2.174 1.123,-4.257 1.604,-6.149 0.449,-1.906 0.777,-3.676 1.113,-5.255 0.561,-3.192 0.969,-5.687 1.154,-7.404 0.215,-1.707 0.328,-2.617 0.328,-2.617 0,0 -0.303,0.866 -0.867,2.491 -0.531,1.626 -1.451,3.973 -2.641,6.92 z"
   id="path10"
   inkscape:connector-curvature="0"
   style="fill:#008000" />
	</g>
</g>
<g
   id="g16">
</g>
<g
   id="g18">
</g>
<g
   id="g20">
</g>
<g
   id="g22">
</g>
<g
   id="g24">
</g>
<g
   id="g26">
</g>
<g
   id="g28">
</g>
<g
   id="g30">
</g>
<g
   id="g32">
</g>
<g
   id="g34">
</g>
<g
   id="g36">
</g>
<g
   id="g38">
</g>
<g
   id="g40">
</g>
<g
   id="g42">
</g>
<g
   id="g44">
</g>
</svg>